<svg width="105" height="40" viewBox="0 0 105 40" fill="none" xmlns="http://www.w3.org/2000/svg">
<g clip-path="url(#clip0_1742_9412)">
<path d="M0.504686 30.1115H1.33938L4.07646 36.4527L6.81059 30.1115H7.63643V37.7351H6.92266V31.4704L4.21803 37.7351H3.92309L1.21845 31.4704V37.7351H0.504686V30.1115ZM8.78671 34.9174C8.78671 33.2027 9.80132 32.1086 11.2701 32.1086C12.739 32.1086 13.7536 33.2027 13.7536 34.9174V35.088C13.7536 36.8027 12.739 37.8851 11.2701 37.8851C9.80132 37.8851 8.78671 36.8027 8.78671 35.088V34.9174ZM11.2701 37.3233C12.3555 37.3233 13.0398 36.4909 13.0398 35.088V34.9174C13.0398 33.5233 12.3437 32.6704 11.2701 32.6704C10.1965 32.6704 9.50047 33.5233 9.50047 34.9174V35.088C9.48868 36.4909 10.1847 37.3233 11.2701 37.3233ZM14.7475 32.2586L16.5172 37.0027L18.3193 32.2586H19.0124L16.9242 37.7351H16.119L14.019 32.2586H14.7475ZM19.2838 34.8557C19.2838 33.2527 20.26 32.1086 21.6876 32.1086C23.0561 32.1086 23.9822 33.0115 23.9822 34.9174V35.2115H19.9828C20.0241 36.388 20.6788 37.3262 21.7524 37.3262C22.1153 37.324 22.474 37.2491 22.8074 37.1061C23.1407 36.9632 23.4419 36.755 23.6932 36.4939V37.238C23.1448 37.6788 22.4564 37.9094 21.7524 37.888C20.204 37.888 19.2779 36.7439 19.2779 35.0909L19.2838 34.8557ZM23.3009 34.6674C23.2714 33.2527 22.5753 32.6704 21.6905 32.6704C20.8057 32.6704 20.0506 33.4409 19.9916 34.6674H23.3009ZM25.0204 32.2586H25.6103L25.6811 33.3821C25.8446 33.0167 26.1071 32.704 26.4389 32.479C26.7708 32.2541 27.159 32.1258 27.5599 32.1086C28.4064 32.1086 28.9491 32.5586 29.1113 33.4233C29.4829 32.7292 30.1259 32.1086 31.0314 32.1086C32.0578 32.1086 32.6418 32.7704 32.6418 34.0233V37.7351H31.9575V34.1174C31.9575 33.1645 31.6861 32.6645 30.9311 32.6645C30.2468 32.6645 29.3915 33.4468 29.1614 34.3204V37.7351H28.4949V34.1174C28.4949 33.1645 28.2324 32.6645 27.4773 32.6645C26.793 32.6645 25.9406 33.4468 25.7076 34.3204V37.7351H25.0234L25.0204 32.2586ZM33.6475 34.8557C33.6475 33.2527 34.6238 32.1086 36.0513 32.1086C37.4199 32.1086 38.346 33.0115 38.346 34.9174V35.2115H34.3465C34.3849 36.388 35.0397 37.3262 36.1162 37.3262C36.4791 37.3243 36.8379 37.2496 37.1713 37.1066C37.5047 36.9636 37.8059 36.7552 38.0569 36.4939V37.238C37.5095 37.6804 36.8205 37.9112 36.1162 37.888C34.5677 37.888 33.6416 36.7439 33.6416 35.0909L33.6475 34.8557ZM37.6617 34.6674C37.6322 33.2527 36.9391 32.6704 36.0513 32.6704C35.1635 32.6704 34.4114 33.4409 34.3524 34.6674H37.6617ZM39.3812 32.2586H39.9859L40.0567 33.5233C40.4076 32.8292 41.1332 32.1086 42.1213 32.1086C43.2568 32.1086 43.8526 32.8204 43.8526 34.1233V37.7351H43.1683V34.2233C43.1683 33.2204 42.8734 32.6704 42.021 32.6704C41.1686 32.6704 40.2897 33.5939 40.0685 34.5557V37.7351H39.3842L39.3812 32.2586ZM44.472 32.2586H45.6901V30.588H46.3744V32.2527H47.5895V32.8233H46.3744V37.7351H45.6901V32.8292H44.472V32.2586ZM50.6982 32.2586H51.9104V30.588H52.5947V32.2527H53.8099V32.8233H52.5947V37.7351H51.9104V32.8292H50.7012L50.6982 32.2586ZM54.6003 30.0527H55.2846V33.4939C55.6356 32.8115 56.3612 32.1086 57.3256 32.1086C58.4641 32.1086 59.0569 32.8204 59.0569 34.1233V37.7351H58.3727V34.2233C58.3727 33.2204 58.0777 32.6704 57.2253 32.6704C56.373 32.6704 55.5265 33.5527 55.2846 34.5145V37.7498H54.6003V30.0527ZM60.2426 35.4292C60.5376 34.9762 61.1481 34.7674 62.2659 34.5468L63.7406 34.2674C63.7406 33.2027 63.2776 32.6615 62.2659 32.6615C61.9168 32.6641 61.5717 32.7374 61.2518 32.8769C60.9319 33.0164 60.6437 33.2193 60.4048 33.4733V32.7821C60.919 32.3327 61.5822 32.0895 62.2659 32.0998C63.5755 32.0998 64.4279 32.7527 64.4279 34.1057V37.7351H63.9265L63.7554 36.7939C63.5107 37.1298 63.1901 37.4036 62.8197 37.5931C62.4493 37.7827 62.0393 37.8827 61.6229 37.8851C60.6673 37.8851 59.9919 37.3557 59.9919 36.3321C59.9792 36.012 60.0679 35.6961 60.2456 35.4292H60.2426ZM61.7527 37.3233C62.1676 37.2945 62.5683 37.1605 62.9167 36.934C63.2651 36.7075 63.5497 36.3961 63.7436 36.0292V34.8262L62.6965 35.0262C61.9415 35.1674 61.1776 35.2674 60.8561 35.688C60.7248 35.8685 60.6612 36.0891 60.6762 36.3115C60.6791 37.0027 61.1215 37.3233 61.7557 37.3233H61.7527ZM65.0266 32.2586H66.2447V30.588H66.926V32.2527H68.1442V32.8233H66.926V37.7351H66.2447V32.8292H65.0266V32.2586ZM71.9666 30.2527H72.6509V31.2262H71.9666V30.2527ZM71.9666 32.2586H72.6509V37.7351H71.9666V32.2586ZM73.9899 32.2586H74.5798L74.6506 33.5233C75.0016 32.8292 75.7272 32.1086 76.7152 32.1086C77.8508 32.1086 78.4436 32.8204 78.4436 34.1233V37.7351H77.7593V34.2233C77.7593 33.2204 77.4644 32.6704 76.6149 32.6704C75.7655 32.6704 74.8836 33.5939 74.6624 34.5557V37.7351H73.9781L73.9899 32.2586ZM79.4818 36.4704C79.6813 36.734 79.9399 36.9475 80.2369 37.0936C80.534 37.2396 80.8613 37.3143 81.1925 37.3115C81.9859 37.3115 82.5286 36.9527 82.5286 36.3586C82.5286 35.9586 82.3988 35.6586 81.685 35.3557L80.8503 35.0056C79.9655 34.6351 79.5526 34.1821 79.5526 33.5115C79.5526 32.7792 80.1956 32.0968 81.3517 32.0968C81.9669 32.1052 82.5605 32.3243 83.0329 32.7174V33.4998C82.8233 33.2546 82.5666 33.0538 82.2778 32.9093C81.989 32.7648 81.6741 32.6796 81.3517 32.6586C80.576 32.6586 80.2545 33.0704 80.2545 33.5115C80.2545 33.9027 80.5495 34.1233 81.1807 34.3939L81.9947 34.7351C82.8795 35.1174 83.2423 35.6174 83.2423 36.3409C83.2423 37.2733 82.4076 37.8851 81.2013 37.8851C80.8889 37.9026 80.5761 37.8566 80.2821 37.7499C79.988 37.6433 79.7188 37.4781 79.4906 37.2645L79.4818 36.4704ZM84.2422 32.2468H84.8468L84.9088 33.2292C85.0939 32.8983 85.3612 32.6203 85.6851 32.4221C86.0089 32.2238 86.3784 32.1118 86.7581 32.0968C88.1561 32.0968 89.1412 33.2409 89.1412 34.9762C89.1412 36.7115 88.1561 37.8733 86.7581 37.8733C86.3859 37.8572 86.0237 37.7491 85.7039 37.5586C85.3842 37.3681 85.117 37.1013 84.9265 36.7821V39.9292H84.2422V32.2468ZM86.7138 37.3233C87.7491 37.3233 88.454 36.3909 88.454 34.988C88.454 33.5851 87.7491 32.6704 86.7138 32.6704C85.9381 32.6704 85.2037 33.3615 84.9442 34.2057V35.788C85.189 36.6321 85.9234 37.3233 86.7138 37.3233ZM90.203 30.2645H90.8873V31.238H90.203V30.2645ZM90.203 32.2704H90.8873V37.7351H90.203V32.2704ZM92.2234 32.2704H92.828L92.8899 33.2439C93.2203 32.5704 93.7423 32.1204 94.5269 32.1204C94.7147 32.1181 94.9018 32.1449 95.0814 32.1998V32.788C94.8864 32.7238 94.682 32.693 94.4767 32.6968C93.8043 32.6968 93.179 33.2174 92.9076 34.0527V37.7351H92.2234V32.2704ZM95.3498 34.8674C95.3498 33.2645 96.326 32.1204 97.7536 32.1204C99.1221 32.1204 100.048 33.0233 100.048 34.9292V35.2233H96.0281C96.0694 36.3998 96.7242 37.338 97.7978 37.338C98.1607 37.3357 98.5194 37.2609 98.8527 37.1179C99.1861 36.9749 99.4873 36.7667 99.7385 36.5057V37.2498C99.1902 37.6906 98.5018 37.9211 97.7978 37.8998C96.2494 37.8998 95.3232 36.7556 95.3232 35.1027L95.3498 34.8674ZM99.364 34.6792C99.3315 33.2645 98.6384 32.6821 97.7536 32.6821C96.8687 32.6821 96.1137 33.4527 96.0547 34.6792H99.364ZM100.777 36.4939C100.976 36.7572 101.234 36.9704 101.531 37.1164C101.827 37.2625 102.154 37.3374 102.484 37.3351C103.281 37.3351 103.824 36.9762 103.824 36.3821C103.824 35.9821 103.694 35.6821 102.98 35.3792L102.142 35.0292C101.257 34.6586 100.848 34.2057 100.848 33.5351C100.848 32.8027 101.491 32.1204 102.647 32.1204C103.261 32.1272 103.854 32.3466 104.325 32.7409V33.5233C104.116 33.2779 103.86 33.077 103.572 32.9325C103.283 32.788 102.969 32.7028 102.647 32.6821C101.871 32.6821 101.549 33.0939 101.549 33.5351C101.549 33.9262 101.844 34.1468 102.476 34.4174L103.281 34.7586C104.166 35.1409 104.528 35.6409 104.528 36.3645C104.528 37.2968 103.694 37.9086 102.484 37.9086C102.173 37.9257 101.86 37.8795 101.567 37.7729C101.273 37.6662 101.004 37.5013 100.777 37.288V36.4939ZM60.921 2.15565C60.9361 1.91034 60.8987 1.66462 60.8114 1.43478C60.7241 1.20494 60.5888 0.996212 60.4146 0.822421C60.2403 0.64863 60.031 0.513739 59.8005 0.426679C59.57 0.339619 59.3236 0.302377 59.0776 0.317417H43.1182C42.4212 0.289013 41.7339 0.487199 41.1597 0.882123L11.5031 18.6409C11.4263 18.6988 11.336 18.7362 11.2406 18.7498C11.1168 18.7498 11.0666 18.6615 11.0666 18.4733V0.49977C11.0666 0.205653 10.9929 0.0585938 10.8602 0.0585938C10.7738 0.0599909 10.6897 0.0865744 10.6183 0.135064L1.84668 5.39389C0.371961 6.27624 0.000331973 7.22624 0.000331973 8.87918V22.3233C-0.014751 22.5686 0.0225961 22.8143 0.109901 23.0442C0.197205 23.274 0.332475 23.4827 0.506754 23.6565C0.681033 23.8303 0.890346 23.9652 1.12083 24.0523C1.35132 24.1393 1.59772 24.1766 1.84373 24.1615H12.3673C13.0247 24.171 13.6692 23.979 14.2137 23.6115L25.6604 16.7645C25.7236 16.7219 25.7968 16.6965 25.8728 16.6909C25.9113 16.6953 25.9486 16.7071 25.9825 16.7258C26.0164 16.7444 26.0463 16.7696 26.0704 16.7998L32.9043 23.6145C33.3349 24.0439 33.9484 24.1645 34.7477 24.1645H44.9468C45.1415 24.1645 45.3067 24.1057 45.3067 23.9704C45.3067 23.8351 45.2034 23.7409 45.053 23.5909L33.7685 12.3527C33.6564 12.2409 33.6269 12.1792 33.6269 12.1086C33.6269 12.038 33.6711 11.9557 33.8304 11.8615L49.6099 2.40565C49.685 2.35118 49.7739 2.3186 49.8665 2.31153C49.9756 2.31153 50.0405 2.44389 50.0405 2.58801V22.3233C50.0259 22.5688 50.0636 22.8145 50.1513 23.0444C50.2389 23.2742 50.3745 23.4829 50.549 23.6566C50.7235 23.8304 50.9329 23.9652 51.1636 24.0522C51.3942 24.1393 51.6407 24.1765 51.8869 24.1615H67.746C68.4022 24.1695 69.0445 23.9732 69.5835 23.5998L93.4975 8.10271C93.5718 8.04875 93.6596 8.01619 93.7512 8.00859C93.8691 8.00859 93.9281 8.14095 93.9281 8.30271V24.2998C93.9281 24.5939 94.0255 24.6792 94.1317 24.6792C94.2383 24.6716 94.3406 24.6338 94.4266 24.5704L103.151 19.3439C104.626 18.4615 104.994 17.5057 104.994 15.8498V2.15565C105.01 1.91034 104.972 1.66462 104.885 1.43478C104.798 1.20494 104.662 0.996212 104.488 0.822421C104.314 0.64863 104.104 0.513739 103.874 0.426679C103.643 0.339619 103.397 0.302377 103.151 0.317417H95.9632C95.2935 0.300969 94.6361 0.498873 94.0874 0.882123L61.3487 22.0792C61.2754 22.1355 61.1872 22.1692 61.095 22.1762C60.977 22.1762 60.921 22.0645 60.921 21.8821V2.15565Z" fill="white"/>
</g>
<defs>
<clipPath id="clip0_1742_9412">
<rect width="105" height="40" fill="white"/>
</clipPath>
</defs>
</svg>
