<svg width="220" height="88" viewBox="0 0 220 88" fill="none" xmlns="http://www.w3.org/2000/svg">
<g clip-path="url(#clip0_1980_474)">
<path d="M127.462 45.5767C127.462 45.98 127.582 46.2092 127.83 46.2092C127.996 46.2092 128.161 46.1358 128.364 46.0075L196.831 1.7325C198.037 0.953333 199.132 0.540833 200.78 0.540833H215.83C218.141 0.540833 219.687 2.08083 219.687 4.38167V32.9908C219.687 36.4467 218.914 38.445 215.83 40.2967L197.577 51.2142C197.337 51.3608 197.135 51.4433 196.96 51.4433C196.739 51.4433 196.536 51.2783 196.536 50.655V17.2517C196.536 16.885 196.417 16.61 196.168 16.61C196.003 16.61 195.837 16.6833 195.644 16.8025L145.587 49.1792C144.178 50.0867 143.028 50.3617 141.748 50.3617H108.564C106.244 50.3617 104.707 48.8217 104.707 46.5208V5.28917C104.707 4.98667 104.569 4.71167 104.339 4.71167C104.173 4.71167 104.008 4.785 103.805 4.91333L70.7866 24.6583C70.4552 24.86 70.3632 25.0158 70.3632 25.1808C70.3632 25.3183 70.4184 25.4558 70.6577 25.685L94.241 49.17C94.554 49.4817 94.7749 49.72 94.7749 49.9675C94.7749 50.2425 94.4251 50.3708 94.0293 50.3708H72.692C71.0167 50.3708 69.728 50.1142 68.8351 49.2158L54.5397 34.98C54.4017 34.8425 54.282 34.7508 54.1255 34.7508C53.9967 34.7508 53.831 34.815 53.6837 34.9067L29.7598 49.2158C28.3146 50.0775 27.3113 50.3617 25.8937 50.3617H3.8569C1.53724 50.3617 0 48.8217 0 46.5208V18.4342C0 14.9783 0.773222 12.9892 3.8569 11.1467L22.2209 0.155833C22.405 0.0458333 22.5707 0 22.718 0C22.9941 0 23.1506 0.293333 23.1506 0.925833V38.4725C23.1506 38.8667 23.2611 39.05 23.5188 39.05C23.6845 39.05 23.8594 38.9492 24.0619 38.8208L86.1222 1.69583C87.6042 0.806667 88.5063 0.540833 90.2184 0.540833H123.614C125.934 0.540833 127.471 2.08083 127.471 4.38167V45.5767H127.462Z" fill="#05141F"/>
<path d="M0 67.2744H1.76736L7.54812 80.6486L13.3289 67.2744H15.0686V83.3527H13.559V70.1252L7.84268 83.3527H7.22594L1.50962 70.1252V83.3527H0V67.2744Z" fill="#05141F"/>
<path d="M17.4895 77.4036C17.4895 73.7828 19.6343 71.4819 22.7364 71.4819C25.8385 71.4819 27.9832 73.7919 27.9832 77.4036V77.7611C27.9832 81.3819 25.8385 83.6644 22.7364 83.6644C19.6343 83.6644 17.4895 81.3819 17.4895 77.7611V77.4036ZM22.7364 82.4819C25.0284 82.4819 26.5012 80.7219 26.5012 77.7611V77.4036C26.5012 74.4611 25.0376 72.6644 22.7364 72.6644C20.4351 72.6644 18.9715 74.4611 18.9715 77.4036V77.7611C18.9715 80.7219 20.4351 82.4819 22.7364 82.4819Z" fill="#05141F"/>
<path d="M30.0911 71.8027L33.856 81.8127L37.6576 71.8027H39.1212L34.6844 83.3527H32.9815L28.5447 71.8027H30.0911Z" fill="#05141F"/>
<path d="M39.6736 77.2845C39.6736 73.902 41.7355 71.4912 44.7548 71.4912C47.774 71.4912 49.5966 73.3979 49.5966 77.4129V78.027H41.1372C41.22 80.5204 42.6008 82.4912 44.902 82.4912C46.9179 82.4912 48.2343 81.4737 48.9983 80.7312V82.2987C48.1238 83.0779 46.6602 83.6737 44.902 83.6737C41.6343 83.6737 39.6736 81.2629 39.6736 77.7704V77.2845ZM48.1514 76.8812C48.087 73.902 46.6234 72.6737 44.7548 72.6737C42.8861 72.6737 41.2937 74.3054 41.1648 76.8812H48.1514Z" fill="#05141F"/>
<path d="M51.7874 71.8029H53.0576L53.2049 74.177C53.9505 72.7562 55.2853 71.4912 57.1815 71.4912C58.9673 71.4912 60.1179 72.4445 60.4493 74.2595C61.2317 72.802 62.5941 71.4912 64.5087 71.4912C66.6719 71.4912 67.9053 72.8845 67.9053 75.5337V83.362H66.4602V75.7445C66.4602 73.737 65.8894 72.6737 64.297 72.6737C62.8518 72.6737 61.0476 74.3237 60.5597 76.1662V83.362H59.1146V75.7445C59.1146 73.737 58.5623 72.6737 56.9698 72.6737C55.5246 72.6737 53.7204 74.3237 53.2325 76.1662V83.362H51.7874V71.812V71.8029Z" fill="#05141F"/>
<path d="M70.0134 77.2845C70.0134 73.902 72.0754 71.4912 75.0946 71.4912C78.1138 71.4912 79.9364 73.3979 79.9364 77.4129V78.027H71.477C71.5599 80.5204 72.9406 82.4912 75.2419 82.4912C77.2578 82.4912 78.5741 81.4737 79.3381 80.7312V82.2987C78.4636 83.0779 77 83.6737 75.2419 83.6737C71.9741 83.6737 70.0134 81.2629 70.0134 77.7704V77.2845ZM78.4913 76.8812C78.4268 73.902 76.9632 72.6737 75.0946 72.6737C73.226 72.6737 71.6335 74.3054 71.5046 76.8812H78.4913Z" fill="#05141F"/>
<path d="M82.1271 71.8029H83.3974L83.5447 74.4704C84.2903 73.0129 85.8183 71.4912 87.8987 71.4912C90.3012 71.4912 91.5531 72.9945 91.5531 75.7445V83.362H90.1079V75.9554C90.1079 73.8379 89.4911 72.6737 87.687 72.6737C85.8828 72.6737 84.0326 74.617 83.5631 76.652V83.362H82.1179V71.812L82.1271 71.8029Z" fill="#05141F"/>
<path d="M92.8787 71.8028H95.4469V68.292H96.8921V71.8028H99.4603V73.0128H96.8921V83.362H95.4469V73.0128H92.8787V71.8028Z" fill="#05141F"/>
<path d="M106.023 71.8028H108.592V68.292H110.037V71.8028H112.605V73.0128H110.037V83.362H108.592V73.0128H106.023V71.8028Z" fill="#05141F"/>
<path d="M114.271 67.146H115.716V74.406C116.462 72.9668 117.99 71.4818 120.034 71.4818C122.436 71.4818 123.688 72.9852 123.688 75.7352V83.3527H122.243V75.946C122.243 73.8285 121.626 72.6643 119.822 72.6643C118.018 72.6643 116.232 74.5435 115.726 76.5602V83.3527H114.28V67.146H114.271Z" fill="#05141F"/>
<path d="M126.182 78.4853C126.818 77.5319 128.097 77.0919 130.454 76.6428L133.574 76.0469C133.574 73.8011 132.598 72.6644 130.426 72.6644C128.723 72.6644 127.407 73.4436 126.495 74.3786V72.9211C127.324 72.1603 128.705 71.4819 130.426 71.4819C133.187 71.4819 134.992 72.8569 134.992 75.7169V83.3528H133.933L133.574 81.3636C132.552 82.7569 130.877 83.6736 129.073 83.6736C127.057 83.6736 125.63 82.5553 125.63 80.3919C125.63 79.6953 125.777 79.0811 126.182 78.4853ZM129.367 82.4819C130.748 82.4819 132.58 81.5469 133.574 79.7503V77.2111L131.365 77.6328C129.772 77.9261 128.152 78.1369 127.48 79.0261C127.186 79.4111 127.094 79.8328 127.094 80.3369C127.094 81.7944 128.033 82.4728 129.367 82.4728V82.4819Z" fill="#05141F"/>
<path d="M136.29 71.8028H138.858V68.292H140.303V71.8028H142.871V73.0128H140.303V83.362H138.858V73.0128H136.29V71.8028Z" fill="#05141F"/>
<path d="M150.926 67.5679H152.371V69.6212H150.926V67.5679ZM150.926 71.8029H152.371V83.3529H150.926V71.8029Z" fill="#05141F"/>
<path d="M155.197 71.8029H156.467L156.614 74.4704C157.36 73.0129 158.888 71.4912 160.968 71.4912C163.371 71.4912 164.623 72.9945 164.623 75.7445V83.362H163.177V75.9554C163.177 73.8379 162.561 72.6737 160.757 72.6737C158.952 72.6737 157.102 74.617 156.633 76.652V83.362H155.188V71.812L155.197 71.8029Z" fill="#05141F"/>
<path d="M166.813 80.7129C167.872 81.9229 168.94 82.4912 170.422 82.4912C172.097 82.4912 173.248 81.7304 173.248 80.4837C173.248 79.6404 172.971 78.9987 171.462 78.3662L169.695 77.6237C167.844 76.8445 166.951 75.8912 166.951 74.4704C166.951 72.9304 168.314 71.4912 170.753 71.4912C172.217 71.4912 173.496 72.1237 174.297 72.802V74.452C173.174 73.2695 171.876 72.6737 170.753 72.6737C169.115 72.6737 168.433 73.5445 168.433 74.4704C168.433 75.2954 169.069 75.7629 170.385 76.3129L172.088 77.0279C173.975 77.8345 174.72 78.8704 174.72 80.4104C174.72 82.3812 172.953 83.6645 170.403 83.6645C168.581 83.6645 167.531 83.0504 166.795 82.3537V80.7037L166.813 80.7129Z" fill="#05141F"/>
<path d="M176.875 71.8028H178.145L178.274 73.8744C179.102 72.4994 180.547 71.4819 182.186 71.4819C185.141 71.4819 187.221 73.8928 187.221 77.5503C187.221 81.2078 185.141 83.6644 182.186 83.6644C180.575 83.6644 179.167 82.6744 178.32 81.3544V88.0003H176.875V71.7936V71.8028ZM182.057 82.4819C184.248 82.4819 185.73 80.5111 185.73 77.5503C185.73 74.5894 184.239 72.6644 182.057 72.6644C180.418 72.6644 178.872 74.1219 178.32 75.9003V79.2461C178.872 81.0244 180.428 82.4819 182.057 82.4819Z" fill="#05141F"/>
<path d="M189.43 67.5679H190.875V69.6212H189.43V67.5679ZM189.43 71.8029H190.875V83.3529H189.43V71.8029Z" fill="#05141F"/>
<path d="M193.701 71.8028H194.971L195.1 73.8561C195.8 72.4353 196.905 71.4819 198.561 71.4819C199.031 71.4819 199.537 71.5644 199.73 71.6469V72.9119C199.436 72.8019 199.012 72.7194 198.46 72.7194C197.033 72.7194 195.717 73.8194 195.146 75.5794V83.3436H193.701V71.7936V71.8028Z" fill="#05141F"/>
<path d="M200.301 77.2845C200.301 73.902 202.363 71.4912 205.382 71.4912C208.402 71.4912 210.224 73.3979 210.224 77.4129V78.027H201.765C201.848 80.5204 203.228 82.4912 205.53 82.4912C207.546 82.4912 208.862 81.4737 209.626 80.7312V82.2987C208.751 83.0779 207.288 83.6737 205.53 83.6737C202.262 83.6737 200.301 81.2629 200.301 77.7704V77.2845ZM208.779 76.8812C208.715 73.902 207.251 72.6737 205.382 72.6737C203.514 72.6737 201.921 74.3054 201.792 76.8812H208.779Z" fill="#05141F"/>
<path d="M211.762 80.7129C212.82 81.9229 213.888 82.4912 215.37 82.4912C217.045 82.4912 218.196 81.7304 218.196 80.4837C218.196 79.6404 217.92 78.9987 216.41 78.3662L214.643 77.6237C212.793 76.8445 211.9 75.8912 211.9 74.4704C211.9 72.9304 213.262 71.4912 215.701 71.4912C217.165 71.4912 218.444 72.1237 219.245 72.802V74.452C218.122 73.2695 216.824 72.6737 215.701 72.6737C214.063 72.6737 213.382 73.5445 213.382 74.4704C213.382 75.2954 214.017 75.7629 215.333 76.3129L217.036 77.0279C218.923 77.8345 219.669 78.8704 219.669 80.4104C219.669 82.3812 217.901 83.6645 215.352 83.6645C213.529 83.6645 212.48 83.0504 211.743 82.3537V80.7037L211.762 80.7129Z" fill="#05141F"/>
</g>
<defs>
<clipPath id="clip0_1980_474">
<rect width="220" height="88" fill="white"/>
</clipPath>
</defs>
</svg>
