<svg width="24" height="25" viewBox="0 0 24 25" fill="none" xmlns="http://www.w3.org/2000/svg">
<path d="M9.11255 5.95935C7.99442 6.01244 7.00123 6.26855 6.17981 7.08684C5.35839 7.90514 5.10541 8.89833 5.04919 10.0196L5.03066 10.4558C4.98433 11.8788 4.99051 14.7605 5.04919 15.7945C5.10229 16.9157 5.35839 17.9089 6.17981 18.7272C7.00123 19.5455 7.9913 19.8016 9.11255 19.8578L9.54882 19.8764C10.9718 19.9227 13.8535 19.9165 14.8875 19.8578C16.0087 19.8047 17.0019 19.5486 17.8202 18.7272C18.6385 17.9089 18.8946 16.9157 18.9508 15.7945L18.9693 15.3583C19.0157 13.9359 19.0095 11.0567 18.9508 10.0227C18.8977 8.90146 18.6416 7.90826 17.8202 7.08997C17.0019 6.27167 16.0087 6.01557 14.8875 5.95935L14.4512 5.94082C13.0282 5.89449 10.1465 5.90066 9.11255 5.95935ZM12.0016 7.17117L13.0197 7.1638C14.097 7.1594 15.454 7.18658 16.1274 7.45226C16.7395 7.69588 17.2112 8.16749 17.4579 8.78277C17.8233 9.70413 17.739 11.8904 17.739 12.9086L17.7474 14.2267C17.7452 15.2451 17.7015 16.4223 17.4579 17.0344C17.2143 17.6466 16.7427 18.1182 16.1274 18.3649C15.206 18.7303 13.0197 18.646 12.0016 18.646L10.9835 18.6534C9.90609 18.6578 8.54911 18.6306 7.87574 18.3649C7.26358 18.1213 6.79197 17.6497 6.54523 17.0344C6.17981 16.1131 6.26414 13.9268 6.26414 12.9086L6.25676 11.8905C6.25237 10.8131 6.27955 9.45615 6.54523 8.78277C6.78885 8.17061 7.26046 7.699 7.87574 7.45226C8.7971 7.08684 10.9834 7.17117 12.0016 7.17117ZM12.0016 9.31997C10.0152 9.31997 8.41294 10.9222 8.41294 12.9086C8.41294 14.895 10.0152 16.4972 12.0016 16.4972C13.988 16.4972 15.5902 14.895 15.5902 12.9086C15.5902 10.9222 13.988 9.31997 12.0016 9.31997ZM12.0016 10.5755C13.2883 10.5755 14.3346 11.6218 14.3346 12.9086C14.3346 14.1954 13.2852 15.2417 12.0016 15.2417C10.7179 15.2417 9.66849 14.1954 9.66849 12.9086C9.66849 11.6218 10.7148 10.5755 12.0016 10.5755ZM15.737 8.33615C15.2747 8.33615 14.8999 8.71094 14.8999 9.17318C14.8999 9.63542 15.2716 10.0102 15.737 10.0102C16.1992 10.0102 16.574 9.63854 16.574 9.17318C16.574 8.71094 16.1992 8.33615 15.737 8.33615Z" fill="#697278"/>
</svg>
