<svg width="24" height="25" viewBox="0 0 24 25" fill="none" xmlns="http://www.w3.org/2000/svg">
<path d="M12.4662 7.91141L11.7078 7.91016C10.7113 7.9162 7.45035 7.95484 6.52905 8.2022C5.92665 8.36356 5.45221 8.83893 5.29118 9.44255C5.06451 10.2902 5.01345 11.8513 5.00195 12.5116V13.1272C5.01345 13.7875 5.06451 15.3486 5.29118 16.1963C5.45221 16.7999 5.92665 17.2555 6.52905 17.4168C7.36315 17.6408 10.115 17.6936 11.3679 17.7061H12.6307C13.8836 17.6936 16.6354 17.6408 17.4695 17.4168C18.0719 17.2555 18.5464 16.7999 18.7074 16.1963C18.8712 15.5836 18.9433 14.5981 18.975 13.8495L18.9995 12.7268C18.9958 12.2887 18.9649 10.4054 18.7074 9.44255C18.5464 8.83893 18.0719 8.36353 17.4695 8.2022C16.5967 7.96786 13.6241 7.92084 12.4662 7.91141ZM10.5992 10.7093L14.0995 12.8096L10.5992 14.9097V10.7093Z" fill="#697278"/>
</svg>
