<svg width="24" height="25" viewBox="0 0 24 25" fill="none" xmlns="http://www.w3.org/2000/svg">
<g clip-path="url(#clip0_1742_9210)">
<path d="M8.7959 11.999H10.2289L9.54091 9.84375L8.7959 11.999Z" fill="#697278"/>
<path d="M12 1.88477C5.37092 1.88477 0 6.13057 0 11.3723C0 14.7818 2.27684 17.7733 5.69401 19.4457C5.44314 20.3808 4.78556 22.8401 4.65252 23.3647C4.48907 24.0184 4.89199 24.007 5.15426 23.8322C5.35952 23.6953 8.44219 21.5972 9.77257 20.6925C10.4948 20.7989 11.2398 20.8559 12 20.8559C18.6291 20.8559 24 16.6101 24 11.3685C24 6.12677 18.6291 1.88477 12 1.88477ZM6.14634 13.8163C6.14634 14.3941 4.86538 14.3865 4.86158 13.8087C4.86918 13.0181 4.86158 9.62376 4.86158 9.62376H3.62623C2.90022 9.62376 2.90022 8.44162 3.62623 8.43782C3.62623 8.43782 6.51885 8.46063 7.38169 8.46063C8.14951 8.46063 8.14951 9.66937 7.38169 9.66937C6.56446 9.66937 6.15394 9.66937 6.15394 9.66937V13.8163H6.14634ZM10.8711 13.9646C10.5708 13.174 10.6506 13.136 10.6506 13.136H8.38898L8.14191 13.9988C7.87963 14.6032 6.74311 14.109 7.00538 13.5047C7.37029 12.6646 8.4688 9.50593 8.77289 8.83694C8.89452 8.57086 9.1758 8.46443 9.46468 8.46443C9.81438 8.46443 10.1755 8.62027 10.2781 8.83694C10.4986 9.30447 11.6959 12.6038 12.0456 13.5199C12.2889 14.1622 11.1143 14.607 10.8711 13.9646ZM15.4552 14.2535C14.8736 14.2535 13.566 14.2611 12.9769 14.2611C12.3877 14.2611 12.4865 13.5731 12.4865 13.5731C12.4865 13.5731 12.4827 10.1103 12.4789 9.03459C12.4789 8.65828 12.8134 8.46823 13.1479 8.46823C13.4824 8.46823 13.8131 8.65828 13.8169 9.03079C13.8169 9.81001 13.8169 13.0105 13.8169 13.0105C13.8169 13.0105 14.8774 13.0181 15.459 13.0181C16.0405 13.0181 16.0405 14.2535 15.459 14.2535H15.4552ZM19.4425 14.1546L17.8156 11.931L17.4431 12.2313C17.4431 12.2313 17.4431 13.3298 17.4431 13.9076C17.4431 14.4055 16.1736 14.4055 16.1736 13.9076C16.1736 13.5921 16.2002 9.33108 16.1888 8.85974C16.1812 8.60127 16.5157 8.46443 16.8426 8.46443C17.1467 8.46443 17.4431 8.58226 17.4507 8.82553C17.4659 9.46411 17.4507 10.6196 17.4507 10.6196C17.4507 10.6196 19.2905 8.77992 19.5527 8.52145C19.8226 8.25157 20.6589 9.09541 20.389 9.36148C19.9252 9.82141 18.7507 11.091 18.7507 11.091L20.4802 13.3678C20.8071 13.8011 19.7732 14.588 19.4425 14.1508V14.1546Z" fill="#697278"/>
</g>
<defs>
<clipPath id="clip0_1742_9210">
<rect width="24" height="22.05" fill="white" transform="translate(0 1.88477)"/>
</clipPath>
</defs>
</svg>
