<svg width="24" height="24" viewBox="0 0 24 24" fill="none" xmlns="http://www.w3.org/2000/svg">
<g clip-path="url(#clip0_1954_10495)">
<path fill-rule="evenodd" clip-rule="evenodd" d="M10.6817 11.5362L10.1017 9.72021L9.47266 11.5362H10.6817Z" fill="black"/>
<mask id="mask0_1954_10495" style="mask-type:luminance" maskUnits="userSpaceOnUse" x="2" y="3" width="20" height="19">
<path d="M2 3H21.994V21.368H2V3Z" fill="white"/>
</mask>
<g mask="url(#mask0_1954_10495)">
<path fill-rule="evenodd" clip-rule="evenodd" d="M12.626 12.857L12.621 9.031C12.62 8.712 12.903 8.553 13.185 8.553C13.467 8.553 13.748 8.711 13.749 9.029C13.751 9.685 13.747 12.386 13.747 12.386C13.747 12.386 14.64 12.391 15.129 12.391C15.619 12.391 15.622 13.433 15.132 13.433C14.642 13.433 13.537 13.438 13.041 13.438C12.543 13.438 12.626 12.857 12.626 12.857ZM8.153 8.385C8.801 8.385 8.8 9.483 8.152 9.483C7.465 9.482 7.115 9.559 7.115 9.559L7.111 13.047C7.112 13.533 6.029 13.507 6.028 13.022C6.034 12.355 6.028 9.457 6.028 9.457H4.985C4.375 9.457 4.373 8.385 4.985 8.385H8.153ZM10.724 8.869C10.908 9.264 11.921 12.045 12.214 12.818C12.419 13.358 11.429 13.734 11.224 13.193C10.971 12.525 11.036 12.496 11.036 12.496L9.13 12.495L8.923 13.225C8.7 13.735 7.743 13.319 7.963 12.808C8.272 12.1 9.197 9.434 9.454 8.869C9.554 8.646 9.794 8.556 10.038 8.556C10.334 8.556 10.64 8.687 10.725 8.869H10.724ZM15.796 8.888C15.789 8.668 16.071 8.555 16.346 8.555C16.603 8.555 16.853 8.654 16.859 8.859C16.873 9.397 16.859 10.372 16.859 10.372C16.859 10.372 18.409 8.82 18.63 8.602C18.858 8.374 19.563 9.084 19.335 9.311C18.945 9.698 17.955 10.769 17.955 10.769L19.413 12.689C19.691 13.056 18.817 13.718 18.541 13.351L17.167 11.478L16.852 11.73V13.143C16.852 13.563 15.783 13.563 15.782 13.144C15.782 12.877 15.806 9.284 15.796 8.888ZM11.997 3C6.475 3 2 6.539 2 10.903C2 13.744 3.897 16.234 6.743 17.628C6.533 18.408 5.986 20.455 5.876 20.893C5.74 21.437 6.075 21.429 6.295 21.283C6.467 21.169 9.034 19.423 10.141 18.67C10.743 18.76 11.363 18.806 11.997 18.806C17.518 18.806 21.994 15.268 21.994 10.903C21.994 6.54 17.518 3 11.997 3Z" fill="black"/>
</g>
</g>
<defs>
<clipPath id="clip0_1954_10495">
<rect width="24" height="24" fill="white"/>
</clipPath>
</defs>
</svg>
