<svg width="24" height="25" viewBox="0 0 24 25" fill="none" xmlns="http://www.w3.org/2000/svg">
<g clip-path="url(#clip0_1742_9202)">
<path d="M24 12.9102C24 6.2828 18.6274 0.910156 12 0.910156C5.37264 0.910156 0 6.2828 0 12.9102C0 18.5377 3.87456 23.2599 9.10128 24.5569V16.5774H6.62688V12.9102H9.10128V11.33C9.10128 7.24568 10.9498 5.35256 14.9597 5.35256C15.72 5.35256 17.0318 5.50184 17.5685 5.65064V8.97464C17.2853 8.94488 16.7933 8.93 16.1822 8.93C14.2147 8.93 13.4544 9.67544 13.4544 11.6132V12.9102H17.3741L16.7006 16.5774H13.4544V24.8223C19.3963 24.1047 24.0005 19.0455 24.0005 12.9102H24Z" fill="#697278"/>
</g>
<defs>
<clipPath id="clip0_1742_9202">
<rect width="24" height="24" fill="white" transform="translate(0 0.910156)"/>
</clipPath>
</defs>
</svg>
