<svg width="24" height="25" viewBox="0 0 24 25" fill="none" xmlns="http://www.w3.org/2000/svg">
<path fill-rule="evenodd" clip-rule="evenodd" d="M5 11.4961H7V9.49609H4.5C4.10218 9.49609 3.72064 9.65413 3.43934 9.93543C3.15804 10.2167 3 10.5983 3 10.9961V19.9961C3 20.3939 3.15804 20.7754 3.43934 21.0568C3.72064 21.3381 4.10218 21.4961 4.5 21.4961H19.5C19.8978 21.4961 20.2794 21.3381 20.5607 21.0568C20.842 20.7754 21 20.3939 21 19.9961V10.9961C21 10.5983 20.842 10.2167 20.5607 9.93543C20.2794 9.65413 19.8978 9.49609 19.5 9.49609H17V11.4961H19V19.4961H5V11.4961Z" fill="#697278"/>
<path fill-rule="evenodd" clip-rule="evenodd" d="M11.0293 14.5273V3.7793H13.0293V14.5273H11.0293Z" fill="#697278"/>
<path fill-rule="evenodd" clip-rule="evenodd" d="M12.0004 4.91073L8.60836 8.30473L7.19336 6.88973L10.5874 3.49573C10.9624 3.12079 11.471 2.91016 12.0014 2.91016C12.5317 2.91016 13.0403 3.12079 13.4154 3.49573L16.8104 6.88973L15.4004 8.30473L12.0004 4.91073Z" fill="#697278"/>
</svg>
